<svg xmlns="http://www.w3.org/2000/svg" xmlns:xlink="http://www.w3.org/1999/xlink" version="1.1" x="0px" y="0px" viewBox="0 0 65 81.25" enable-background="new 0 0 65 65" xml:space="preserve"><g fill="#12627B"><path d="M64.2,12.3c0-6.9-5.7-12.6-12.6-12.6C44.7-0.2,39,5.4,39,12.3v0c0,0.9,0.1,1.8,0.4,2.7c-3.2-1.3-6.5-2-10-2c0,0,0,0-0.1,0   c0,0,0,0-0.1,0c-4.4,0-8.6,1.1-12.4,3.2c-1-3.3-4.2-5.8-7.8-5.8c-4.5,0-8.2,3.7-8.2,8.2v0c0,3.2,2.5,7.1,4.7,9.9   C4,31.9,3.2,35.5,3.2,39.2c0,7.3,3.1,14.3,8.4,19.2c4.8,4.4,11.1,6.9,17.7,6.9c6.6,0,12.8-2.4,17.7-6.9c5.4-4.9,8.4-11.9,8.4-19.2   c0-2.7-0.4-5.4-1.2-7.9C57.6,27.2,64.2,18.7,64.2,12.3C64.2,12.3,64.2,12.3,64.2,12.3z M51.6,1.3c6.1,0,11.1,5,11.1,11.1   c0,6.8-8.8,17-11.1,19.5c-2.3-2.5-11.1-12.6-11.1-19.5C40.5,6.2,45.5,1.3,51.6,1.3z M39.9,17c0.7,1.8,1.6,3.7,2.7,5.5   c-0.7,0.5-1.5,0.9-2.2,1.3C39,20,37.1,17,34.8,15.2C36.6,15.6,38.3,16.2,39.9,17z M28.6,14.6v11.8c-3.1-0.1-6.2-0.8-9-2   C21.7,18.8,24.9,15.1,28.6,14.6z M28.6,27.9v10.5H17.2c0.1-4.6,0.8-8.9,1.9-12.6C22.1,27.1,25.3,27.8,28.6,27.9z M28.6,39.9v10.5   c-3.3,0.1-6.5,0.8-9.5,2.1c-1.2-3.6-1.9-7.9-1.9-12.6H28.6z M28.6,51.9v11.8c-3.7-0.5-6.9-4.2-9-9.8C22.4,52.7,25.4,52,28.6,51.9z    M23.8,63.1c-3.9-0.9-7.4-2.7-10.5-5.3c1.5-1.3,3.2-2.4,4.9-3.3C19.6,58.3,21.6,61.2,23.8,63.1z M30.1,63.7V51.9   c3.1,0.1,6.2,0.8,9,2C37,59.5,33.7,63.2,30.1,63.7z M40.4,54.5c1.7,0.9,3.4,2,4.9,3.3c-3,2.6-6.6,4.4-10.5,5.3   C37.1,61.2,39,58.3,40.4,54.5z M30.1,50.4V39.9h11.4c-0.1,4.6-0.8,8.9-1.9,12.6C36.6,51.2,33.4,50.5,30.1,50.4z M30.1,38.4V27.9   c3.3-0.1,6.5-0.8,9.5-2.1c1.2,3.6,1.9,7.9,1.9,12.6H30.1z M30.1,26.4V14.6c3.7,0.5,6.9,4.2,9,9.8C36.2,25.7,33.2,26.3,30.1,26.4z    M23.8,15.2c-2.3,1.9-4.2,4.8-5.6,8.6c-0.7-0.4-1.4-0.7-2-1.2c0.6-1.4,1-2.7,1-3.9c0,0,0,0,0,0c0-0.3,0-0.6,0-0.9   C19.2,16.6,21.5,15.7,23.8,15.2z M16.4,18.7h-0.8l0.4,0L16.4,18.7z M9,12c3.7,0,6.7,3,6.7,6.7c0,4-5,9.9-6.7,11.8   c-1.7-1.9-6.7-7.8-6.7-11.8C2.3,15,5.3,12,9,12z M8.4,32.1L9,32.7l0.5-0.6c0.2-0.2,3.8-4,6-8.1c0.7,0.4,1.4,0.9,2.2,1.2   c-1.2,3.8-2,8.3-2,13.2H4.8c0.1-2.9,0.7-5.8,1.8-8.5C7.6,31.2,8.3,32,8.4,32.1z M4.8,39.9h10.9c0.1,4.9,0.8,9.4,2,13.2   c-2,1-3.8,2.2-5.5,3.7C7.6,52.4,4.9,46.3,4.8,39.9z M12.5,57.1c0.2,0.1,0.3,0.2,0.4,0.4c-0.1-0.1-0.2-0.1-0.3-0.2   C12.6,57.2,12.6,57.2,12.5,57.1z M46.4,56.8c-1.7-1.5-3.5-2.7-5.5-3.7c1.2-3.8,2-8.3,2-13.2h10.9C53.7,46.3,51,52.4,46.4,56.8z    M53.9,38.4H43c-0.1-4.9-0.8-9.4-2-13.2c0.9-0.4,1.7-0.9,2.5-1.4c3.3,5.1,7.3,9.4,7.6,9.7l0.5,0.6l0.5-0.6c0.1-0.1,0.4-0.4,0.8-0.9   C53.5,34.5,53.8,36.4,53.9,38.4z M62.7,12.4l0.4,0l0.4,0H62.7z"/><polygon points="52.4,18.1 52.4,13.4 57,13.4 57,11.9 52.4,11.9 52.4,7.2 50.9,7.2 50.9,11.9 46.2,11.9 46.2,13.4 50.9,13.4    50.9,18.1  "/><polygon points="9.7,22.7 9.7,20.1 12.4,20.1 12.4,18.6 9.7,18.6 9.7,16 8.2,16 8.2,18.6 5.6,18.6 5.6,20.1 8.2,20.1 8.2,22.7  "/></g></svg>