<svg xmlns="http://www.w3.org/2000/svg" xmlns:xlink="http://www.w3.org/1999/xlink" version="1.1" x="0px" y="0px" viewBox="0 0 32 40" enable-background="new 0 0 32 32" xml:space="preserve"><g><rect fill="none" width="32" height="32"/></g><g fill="#12627B"><g><path d="M26.51,13c-1.429,0-2.683-0.466-3.501-1.208C22.188,12.534,20.932,13,19.5,13c-1.428,0-2.681-0.466-3.5-1.207    C15.181,12.534,13.928,13,12.5,13c-1.432,0-2.688-0.466-3.509-1.208C8.173,12.534,6.919,13,5.49,13    c-0.192,0-0.373-0.01-0.554-0.022C2.887,12.78,1.33,11.661,1.03,10.19C0.954,9.826,1.003,9.428,1.179,9.011L4.48,1H27.52    l3.305,8.019c0.172,0.407,0.222,0.805,0.146,1.173c-0.301,1.47-1.857,2.588-3.874,2.783C26.883,12.99,26.702,13,26.51,13z     M24.01,9.69c0,0.619,1.069,1.31,2.5,1.31c0.148,0,0.287-0.009,0.426-0.018c1.114-0.108,1.912-0.652,2.06-1.136L26.18,3H5.819    L3.024,9.781c0.066,0.506,0.882,1.089,2.072,1.204C5.203,10.991,5.342,11,5.49,11c1.431,0,2.5-0.691,2.5-1.31h2    c0,0.619,1.073,1.31,2.51,1.31c1.431,0,2.5-0.691,2.5-1.31h2c0,0.619,1.069,1.31,2.5,1.31c1.437,0,2.51-0.691,2.51-1.31H24.01z"/></g><g><path d="M19.5,13c-2.523,0-4.5-1.454-4.5-3.31c0-0.552,0.448-1,1-1s1,0.448,1,1c0,0.618,1.069,1.31,2.5,1.31    c1.437,0,2.51-0.692,2.51-1.31c0-0.552,0.448-1,1-1s1,0.448,1,1C24.01,11.546,22.029,13,19.5,13z"/></g><g><path d="M12.5,13c-2.529,0-4.51-1.454-4.51-3.31c0-0.552,0.448-1,1-1s1,0.448,1,1c0,0.618,1.073,1.31,2.51,1.31    c1.431,0,2.5-0.692,2.5-1.31c0-0.552,0.448-1,1-1s1,0.448,1,1C17,11.546,15.023,13,12.5,13z"/></g><g><path d="M5,18.26c-0.552,0-1-0.448-1-1v-6.346l1.064,0.068C5.203,10.991,5.342,11,5.49,11c1.431,0,2.5-0.692,2.5-1.31    c0-0.552,0.448-1,1-1s1,0.448,1,1c0,1.729-1.715,3.109-3.99,3.29v4.28C6,17.812,5.552,18.26,5,18.26z"/></g><g><path d="M28,31H9c-0.552,0-1-0.448-1-1s0.448-1,1-1h17V12.98c-2.275-0.181-3.99-1.561-3.99-3.29c0-0.552,0.448-1,1-1s1,0.448,1,1    c0,0.618,1.069,1.31,2.5,1.31c0.148,0,0.287-0.009,0.426-0.018L28,10.914V31z"/></g><g><path d="M9,31c-1.661,0-3.244-0.499-4.578-1.443C2.283,28.075,1,25.622,1,23s1.283-5.075,3.431-6.563C5.756,15.499,7.339,15,9,15    c4.411,0,8,3.589,8,8S13.411,31,9,31z M9,17c-1.245,0-2.428,0.372-3.422,1.076C3.96,19.196,3,21.035,3,23s0.96,3.804,2.569,4.918    C6.572,28.628,7.755,29,9,29c3.309,0,6-2.691,6-6S12.309,17,9,17z"/></g><g><path d="M9,27c-0.552,0-1-0.448-1-1v-6c0-0.552,0.448-1,1-1s1,0.448,1,1v6C10,26.552,9.552,27,9,27z"/></g><g><path d="M12,24H6c-0.552,0-1-0.448-1-1s0.448-1,1-1h6c0.552,0,1,0.448,1,1S12.552,24,12,24z"/></g><g><path d="M22,24h-1c-1.103,0-2-0.897-2-2v-2c0-1.103,0.897-2,2-2h1c1.103,0,2,0.897,2,2v2C24,23.103,23.103,24,22,24z M21,20v2    h1.001L22,20H21z"/></g></g></svg>