<svg xmlns="http://www.w3.org/2000/svg" xmlns:xlink="http://www.w3.org/1999/xlink" version="1.1" x="0px" y="0px" viewBox="0 0 130 162.5" style="enable-background:new 0 0 130 130;" xml:space="preserve"><g fill="#ffffff"><path d="M108.0825195,51.0461426c1.65625,0,3.0029297-1.3466797,3.0029297-3.0029297v-7.7910156   c0-1.65625-1.3466797-3.0029297-3.0029297-3.0029297H94.4216309L88.6557617,11.411377   c-0.0040894-0.0183105-0.0167847-0.0314941-0.0217896-0.0490723c-0.026062-0.0927734-0.0645142-0.1791992-0.1159058-0.2607422   c-0.0162964-0.0258789-0.02948-0.0522461-0.0479126-0.0761719c-0.0701904-0.0917969-0.1515503-0.1757813-0.2528687-0.2399902   l-0.0006104-0.0004883c-0.0004272-0.0002441-0.0007324-0.0002441-0.0011597-0.0007324L71.4995728,0.1660156   c-0.0246582-0.0161133-0.0529175-0.0234375-0.0789795-0.0375977c-0.0791016-0.0424805-0.1604614-0.076416-0.2457886-0.0961914   c-0.0413208-0.0097656-0.0825806-0.0114746-0.1252441-0.015625c-0.0822144-0.0083008-0.1629028-0.0065918-0.2446899,0.0053711   c-0.024353,0.0036621-0.0474854-0.0039063-0.0719604,0.001709L31.0473633,8.8820801   c-1.1035156,0.2402344-2.0449219,0.8994141-2.6513672,1.8564453c-0.6035156,0.9511719-0.8037109,2.0820313-0.5615234,3.1884766   l5.2084961,23.3222656H21.9174805c-1.65625,0-3.0029297,1.3466797-3.0029297,3.0029297v7.7910156   c0,1.65625,1.3466797,3.0029297,3.0029297,3.0029297h3.1470947l9.4749756,75.3740234   c0.2578125,2.0419922,2.0039063,3.5810547,4.0605469,3.5810547h52.8007813c2.0576172,0,3.8027344-1.5400391,4.0595703-3.5810547   l9.4749756-75.3740234H108.0825195z M85.1069336,11.1789551l-7.4042969,1.6513672   c-0.7871094,0.1738281-1.59375,0.0332031-2.2734375-0.3974609c-0.6796875-0.4316406-1.1503906-1.1025391-1.3261719-1.8886719   l-1.6513672-7.4042969L85.1069336,11.1789551z M29.7866211,13.4963379   c-0.2626953-1.2070313,0.4931641-2.4003906,1.6914063-2.6621094l38.7133789-8.6413574l1.9604492,8.7868652   c0.2910156,1.3076172,1.0742188,2.4228516,2.2050781,3.1416016c0.8144531,0.5166016,1.7373047,0.7832031,2.6787109,0.7832031   c0.3662109,0,0.7363281-0.0410156,1.1025391-0.1230469l8.7841187-1.9589844l5.4509888,24.4267578H68.2666626l15.2514038-3.4052734   c0.5390625-0.1201172,0.8789063-0.6542969,0.7578125-1.1933594c-0.1191406-0.5390625-0.65625-0.8789063-1.1933594-0.7578125   l-23.9902344,5.3564453H35.0914307L29.7866211,13.4963379z M93.4760742,126.170166   c-0.1308594,1.0439453-1.0234375,1.8310547-2.0751953,1.8310547H38.6000977c-1.0517578,0-1.9443359-0.7871094-2.0761719-1.8310547   l-9.4433594-75.1240234h75.8388672L93.4760742,126.170166z M25.9467773,49.0461426h-4.0292969   c-0.5527344,0-1.0029297-0.4501953-1.0029297-1.0029297v-7.7910156c0-0.5527344,0.4501953-1.0029297,1.0029297-1.0029297   h86.1650391c0.5527344,0,1.0029297,0.4501953,1.0029297,1.0029297v7.7910156c0,0.5527344-0.4501953,1.0029297-1.0029297,1.0029297   h-4.0292969H25.9467773z"/><path d="M80.7729492,112.0959473c0.109375,0.0097656,0.2177734,0.0136719,0.3232422,0.0136719   c2.0039063,0,3.7041016-1.5654297,3.8701172-3.5654297l3.0830078-37.4033203   c0.1738281-2.1337891-1.4199219-4.0126953-3.5527344-4.1884766c-1.0410156-0.0957031-2.0488281,0.2353516-2.8388672,0.9082031   c-0.7861328,0.6699219-1.2666016,1.6083984-1.3535156,2.6435547l-3.0830078,37.4013672   C77.0454102,110.0402832,78.6391602,111.920166,80.7729492,112.0959473z M82.2973633,70.6691895   c0.0419922-0.5048828,0.2753906-0.9609375,0.6572266-1.2851563c0.3408203-0.2900391,0.7666016-0.4453125,1.2138672-0.4453125   c0.0537109,0,0.1083984,0.0019531,0.1630859,0.0068359c1.0351563,0.0849609,1.8085938,0.9970703,1.7236328,2.0322266   l-3.0820313,37.4013672c-0.0810547,0.9707031-0.9052734,1.7304688-1.8769531,1.7304688   c-0.0507813,0-0.1025391-0.0019531-0.1572266-0.0068359c-1.0361328-0.0849609-1.8095703-0.9970703-1.7236328-2.0332031   L82.2973633,70.6691895z"/><path d="M65.0004883,112.1096191c2.1416016,0,3.8847656-1.7431641,3.8847656-3.8847656V70.8234863   c0-2.1416016-1.7431641-3.8847656-3.8847656-3.8847656s-3.8847656,1.7431641-3.8847656,3.8847656v37.4013672   C61.1157227,110.3664551,62.8588867,112.1096191,65.0004883,112.1096191z M63.1157227,70.8234863   c0-1.0390625,0.8457031-1.8847656,1.8847656-1.8847656s1.8847656,0.8457031,1.8847656,1.8847656v37.4013672   c0,1.0390625-0.8457031,1.8847656-1.8847656,1.8847656s-1.8847656-0.8457031-1.8847656-1.8847656V70.8234863z"/><path d="M48.9038086,112.1096191c0.1074219,0,0.2177734-0.0039063,0.3212891-0.0126953   c2.1357422-0.1767578,3.7294922-2.0566406,3.5537109-4.1914063l-3.0830078-37.4013672   c-0.1757813-2.1269531-2.0449219-3.703125-4.1904297-3.5527344c-2.1347656,0.1767578-3.7294922,2.0556641-3.5537109,4.1904297   l3.0830078,37.4023438C45.199707,110.5432129,46.8989258,112.1096191,48.9038086,112.1096191z M45.6665039,68.9455566   c0.0507813-0.0039063,0.1015625-0.0058594,0.1513672-0.0058594c0.9736328,0,1.8037109,0.7470703,1.8837891,1.7285156   l3.0830078,37.4013672c0.0859375,1.0361328-0.6875,1.9482422-1.7275391,2.0341797   c-1.0195313,0.0898438-1.9443359-0.703125-2.0283203-1.7236328l-3.0830078-37.4023438   C43.8598633,69.942627,44.6333008,69.0305176,45.6665039,68.9455566z"/><path d="M39.940918,30.5695801c0.1035156,0.4658203,0.5166016,0.7822266,0.9746094,0.7822266   c0.0722656,0,0.1455078-0.0078125,0.21875-0.0244141l40.1396484-8.9541016   c0.5390625-0.1201172,0.8789063-0.6542969,0.7578125-1.1933594c-0.1201172-0.5390625-0.6552734-0.8808594-1.1933594-0.7578125   l-40.1396484,8.9541016C40.159668,29.4963379,39.8198242,30.0305176,39.940918,30.5695801z"/><path d="M38.6733398,19.8781738c0.0722656,0,0.1455078-0.0078125,0.21875-0.0244141l22.2792969-4.9697266   c0.5390625-0.1201172,0.8789063-0.6542969,0.7578125-1.1933594c-0.1191406-0.5390625-0.65625-0.8798828-1.1933594-0.7578125   L38.456543,17.9025879c-0.5390625,0.1201172-0.8789063,0.6542969-0.7578125,1.1933594   C37.8022461,19.5617676,38.215332,19.8781738,38.6733398,19.8781738z"/></g></svg>